<svg width="18" height="18" viewBox="0 0 18 18" fill="none" xmlns="http://www.w3.org/2000/svg">
<path d="M12.4639 0C12.5058 0 12.5477 0 12.592 0C12.6947 1.2694 12.2102 2.21789 11.6213 2.90476C11.0435 3.58688 10.2523 4.24845 8.97267 4.14807C8.88731 2.89685 9.37262 2.01871 9.96068 1.33342C10.5061 0.69477 11.5059 0.126466 12.4639 0Z" fill="white"/>
<path d="M16.3377 13.2125C16.3377 13.2251 16.3377 13.2362 16.3377 13.248C15.9781 14.3372 15.4651 15.2707 14.8391 16.137C14.2676 16.9234 13.5673 17.9818 12.3169 17.9818C11.2364 17.9818 10.5187 17.287 9.41135 17.2681C8.23996 17.2491 7.59578 17.849 6.52477 18C6.40226 18 6.27975 18 6.1596 18C5.37315 17.8862 4.73845 17.2633 4.27606 16.7021C2.9126 15.0438 1.85899 12.9018 1.66296 10.1607C1.66296 9.89196 1.66296 9.62401 1.66296 9.35527C1.74596 7.39347 2.69919 5.79843 3.96622 5.02541C4.6349 4.61439 5.55415 4.26424 6.57773 4.42074C7.01641 4.48872 7.46457 4.6389 7.8574 4.78749C8.22969 4.93056 8.69524 5.18428 9.13629 5.17084C9.43506 5.16215 9.73226 5.00644 10.0334 4.89657C10.9155 4.57804 11.7802 4.21287 12.92 4.38438C14.2898 4.59147 15.262 5.20009 15.8627 6.13909C14.7039 6.87655 13.7878 7.98786 13.9443 9.88564C14.0835 11.6095 15.0857 12.6181 16.3377 13.2125Z" fill="white"/>
</svg>
