<svg width="17" height="17" viewBox="0 0 17 17" fill="none" xmlns="http://www.w3.org/2000/svg">
<g clip-path="url(#clip0_2867_19387)">
<path d="M6.07338 0.776614C4.47473 1.3312 3.09606 2.38382 2.13987 3.77987C1.18367 5.17591 0.700366 6.84179 0.76093 8.53282C0.821493 10.2238 1.42274 11.8509 2.47635 13.175C3.52996 14.499 4.9804 15.4503 6.61463 15.8891C7.93953 16.231 9.32764 16.246 10.6596 15.9329C11.8663 15.6618 12.9819 15.0821 13.8971 14.2504C14.8497 13.3583 15.5412 12.2235 15.8971 10.9679C16.284 9.60245 16.3529 8.16653 16.0984 6.77036H8.65838V9.85661H12.9671C12.881 10.3488 12.6965 10.8187 12.4246 11.2379C12.1527 11.6572 11.799 12.0172 11.3846 12.2966C10.8585 12.6447 10.2654 12.8788 9.64338 12.9841C9.01956 13.1001 8.3797 13.1001 7.75588 12.9841C7.12361 12.8534 6.5255 12.5924 5.99963 12.2179C5.15481 11.6198 4.52047 10.7703 4.18713 9.79036C3.84815 8.79211 3.84815 7.70987 4.18713 6.71161C4.42441 6.01188 4.81667 5.37478 5.33463 4.84786C5.92737 4.2338 6.67779 3.79486 7.50357 3.57921C8.32935 3.36356 9.19858 3.37953 10.0159 3.62536C10.6543 3.82135 11.2382 4.16379 11.7209 4.62536C12.2067 4.14203 12.6917 3.65745 13.1759 3.17161C13.4259 2.91036 13.6984 2.66161 13.9446 2.39411C13.2078 1.70846 12.343 1.17494 11.3996 0.824114C9.68176 0.200351 7.8021 0.183588 6.07338 0.776614Z" fill="white"/>
<path d="M6.07445 0.776245C7.80303 0.182816 9.68269 0.199138 11.4007 0.822495C12.3442 1.1757 13.2087 1.71179 13.9445 2.39999C13.6945 2.66749 13.4307 2.91749 13.1757 3.17749C12.6907 3.66166 12.2061 4.14416 11.722 4.62499C11.2393 4.16342 10.6554 3.82098 10.017 3.62499C9.19992 3.3783 8.33073 3.3614 7.50473 3.57617C6.67873 3.79094 5.92784 4.22907 5.33445 4.84249C4.81649 5.36941 4.42424 6.00652 4.18695 6.70624L1.5957 4.69999C2.52321 2.8607 4.12914 1.45377 6.07445 0.776245Z" fill="#E33629"/>
<path d="M0.908903 6.6877C1.04818 5.99744 1.27941 5.32898 1.5964 4.7002L4.18765 6.71145C3.84867 7.7097 3.84867 8.79194 4.18765 9.79019C3.32432 10.4569 2.46057 11.1269 1.5964 11.8002C0.802841 10.2206 0.560819 8.42082 0.908903 6.6877Z" fill="#F8BD00"/>
<path d="M8.65876 6.76855H16.0988C16.3533 8.16472 16.2844 9.60064 15.8975 10.9661C15.5416 12.2217 14.8501 13.3565 13.8975 14.2486C13.0613 13.5961 12.2213 12.9486 11.385 12.2961C11.7996 12.0164 12.1535 11.6559 12.4254 11.2362C12.6973 10.8165 12.8817 10.3462 12.9675 9.85355H8.65876C8.65751 8.82605 8.65876 7.7973 8.65876 6.76855Z" fill="#587DBD"/>
<path d="M1.59375 11.8C2.45792 11.1334 3.32167 10.4634 4.185 9.79004C4.51901 10.7703 5.15426 11.6199 6 12.2175C6.52751 12.5904 7.12691 12.8492 7.76 12.9775C8.38382 13.0935 9.02368 13.0935 9.6475 12.9775C10.2695 12.8723 10.8626 12.6381 11.3888 12.29C12.225 12.9425 13.065 13.59 13.9012 14.2425C12.9861 15.0747 11.8705 15.6549 10.6637 15.9263C9.33176 16.2394 7.94365 16.2244 6.61875 15.8825C5.57088 15.6028 4.59209 15.1095 3.74375 14.4338C2.84583 13.7209 2.11244 12.8225 1.59375 11.8Z" fill="#319F43"/>
</g>
<defs>
<clipPath id="clip0_2867_19387">
<rect width="16" height="16" fill="white" transform="translate(0.5 0.25)"/>
</clipPath>
</defs>
</svg>
